<svg viewBox="0 0 34.29 48" xmlns="http://www.w3.org/2000/svg"><path d="m17.14 1.21a16 16 0 0 0 -13.64 24.46l12.72 20.5a1.34 1.34 0 0 0 1.14.63 1.34 1.34 0 0 0 1.14-.65l12.4-20.7a16 16 0 0 0 -13.76-24.24zm0 10.68a5.35 5.35 0 0 1 5.34 5.34 5.34 5.34 0 1 1 -10.68 0 5.34 5.34 0 0 1 5.34-5.35z" fill="#fd003a" stroke="#fff" stroke-miterlimit="10" stroke-width="1.4"/><path d="m30.28 8.06a21 21 0 0 1 .18 2.66c0 10.46-7.89 18.93-17.61 18.93a16.58 16.58 0 0 1 -8.2-2.17l11.58 18.68a1.34 1.34 0 0 0 1.14.63 1.34 1.34 0 0 0 1.14-.65l12.4-20.7a16 16 0 0 0 -.64-17.38z" fill="#a50000"/><path d="m30.45 10.72a21 21 0 0 0 -.18-2.66 16 16 0 0 0 -26.77 17.6l1.14 1.83a16.56 16.56 0 0 0 8.2 2.17c9.73-.01 17.61-8.48 17.61-18.94zm-18.66 6.51a5.34 5.34 0 0 1 10.69 0 5.34 5.34 0 0 1 -10.69 0z" fill="#e20000"/><circle cx="17.18" cy="17.39" fill="#fff" r="5.34"/></svg>